<svg width="512" height="512" viewBox="0 0 512 512" fill="none" xmlns="http://www.w3.org/2000/svg">
<circle cx="256" cy="256" r="253" fill="white" stroke="#2A2A2A" stroke-width="6"/>
<path d="M253.636 318.099L196.957 402.136C193.674 407.534 188.714 411.709 182.834 414.025C176.954 416.34 170.478 416.67 164.393 414.962C158.308 413.255 152.95 409.605 149.135 404.569C145.321 399.532 143.26 393.387 143.267 387.07V248.995L185.176 233.656V356.665C185.139 357.099 185.233 357.534 185.445 357.913C185.658 358.293 185.98 358.601 186.37 358.796C186.759 358.991 187.198 359.065 187.63 359.008C188.062 358.951 188.466 358.766 188.792 358.477L244.59 310.252C250.02 305.442 257.557 312.368 253.636 318.099Z" fill="#2A2A2A"/>
<path d="M415 174.041V387.144C415 390.942 414.252 394.703 412.799 398.211C411.345 401.72 409.215 404.907 406.529 407.59C403.844 410.274 400.656 412.401 397.148 413.851C393.641 415.301 389.882 416.044 386.087 416.039H380.023C375.836 416.065 371.695 415.16 367.899 413.39C364.103 411.62 360.747 409.029 358.073 405.804L207.746 225.782L247.23 211.33L368.897 356.966C369.203 357.298 369.602 357.531 370.042 357.634C370.481 357.736 370.942 357.705 371.364 357.542C371.785 357.38 372.149 357.094 372.406 356.723C372.663 356.351 372.803 355.911 372.808 355.459V204.19C372.844 203.756 372.751 203.322 372.538 202.943C372.326 202.563 372.005 202.256 371.617 202.061C371.228 201.866 370.79 201.793 370.359 201.849C369.929 201.906 369.525 202.091 369.2 202.379L313.556 250.844C308.139 255.658 300.62 248.74 304.531 243.016L361.075 159.073C363.665 154.851 367.291 151.362 371.609 148.938C375.927 146.515 380.793 145.237 385.743 145.228C393.419 145.24 400.783 148.265 406.254 153.652C411.725 159.04 414.865 166.361 415 174.041V174.041Z" fill="#2A2A2A"/>
<path d="M316.527 154.001C310.928 160.263 304.579 166.737 299.032 171.941C297.206 173.649 295.049 174.97 292.693 175.823L81.0548 252.794C78.705 253.656 76.2025 254.03 73.7017 253.893C66.0849 253.48 57.0178 252.613 48.6808 251.413C47.9344 251.31 47.2472 250.952 46.7381 250.4C46.2289 249.848 45.9295 249.136 45.8917 248.388C45.7092 245.362 45.4962 239.877 45.7295 233.625C45.7473 233.177 45.8581 232.737 46.055 232.334C46.2519 231.931 46.5306 231.573 46.8736 231.282C47.2166 230.991 47.6164 230.774 48.0478 230.645C48.4793 230.515 48.9331 230.476 49.3807 230.529C57.4133 231.487 63.7015 231.951 69.5333 232.223L54.4518 191.262C54.1884 190.538 54.1884 189.746 54.4518 189.023C77.9006 126.079 128.531 105.084 144.413 98.8921C160.539 93.4265 212.873 76.9997 271.637 110.035C272.309 110.418 272.823 111.025 273.088 111.749L288.169 152.731C292.439 148.788 296.952 144.391 302.47 138.512C302.775 138.185 303.146 137.924 303.558 137.745C303.97 137.566 304.414 137.474 304.863 137.474C305.313 137.474 305.757 137.566 306.169 137.745C306.581 137.924 306.951 138.185 307.257 138.512C311.506 143.151 314.864 147.447 316.709 149.897C317.161 150.496 317.39 151.233 317.357 151.982C317.324 152.73 317.03 153.444 316.527 154.001V154.001Z" fill="#D9304F"/>
</svg>
