<svg width="16" height="16" viewBox="0 0 16 16" fill="none" xmlns="http://www.w3.org/2000/svg">
<path d="M12.8213 0.817778L9.4828 5.77778C9.25194 6.11556 9.69589 6.52444 10.0155 6.24L13.3008 3.37778C13.3896 3.30667 13.5139 3.36 13.5139 3.48444V12.4267C13.5139 12.5511 13.3541 12.6044 13.283 12.5156L3.33851 0.604445C3.01887 0.213333 2.55716 0 2.04218 0H1.68701C0.763596 0 0 0.764444 0 1.70667V14.2933C0 15.2356 0.763596 16 1.70477 16C2.29079 16 2.84129 15.6978 3.16093 15.1822L6.49944 10.2222C6.7303 9.88444 6.28635 9.47556 5.9667 9.76L2.68147 12.6044C2.59267 12.6756 2.46837 12.6222 2.46837 12.4978V3.57333C2.46837 3.44889 2.62819 3.39556 2.69922 3.48444L12.6437 15.3956C12.9634 15.7867 13.4428 16 13.9401 16H14.2952C15.2364 16 16 15.2356 16 14.2933V1.70667C16 0.764444 15.2364 0 14.2952 0C13.6915 0 13.141 0.302222 12.8213 0.817778Z" fill="white"/>
</svg>
